<svg xmlns="http://www.w3.org/2000/svg" width="24" height="24" fill="none"><path fill="#fff" fill-rule="evenodd" d="M17.04 15.19a9.59 9.59 0 0 1-2.97 1.23l2.86 2.86a1.5 1.5 0 1 1-2.12 2.12L12 18.6 9.18 21.4a1.5 1.5 0 0 1-2.12 0 1.5 1.5 0 0 1 0-2.12l2.86-2.86a9.6 9.6 0 0 1-2.97-1.23 1.5 1.5 0 0 1 1.6-2.54 6.5 6.5 0 0 0 6.9 0 1.5 1.5 0 0 1 1.6 2.54Zm-2.92-8.07a2.12 2.12 0 1 0-4.24 0 2.12 2.12 0 0 0 4.24 0Zm3 0A5.13 5.13 0 0 1 12 12.24a5.13 5.13 0 0 1-5.12-5.12A5.13 5.13 0 0 1 12 2a5.13 5.13 0 0 1 5.12 5.12Z" clip-rule="evenodd"/></svg>
