<svg xmlns="http://www.w3.org/2000/svg" width="24" height="24" fill="none"><path fill="#fff" fill-rule="evenodd" d="M21.8 15.93s.2-1.62.2-3.24v-1.52c0-1.62-.2-3.23-.2-3.23s-.2-1.38-.8-2a2.74 2.74 0 0 0-1.87-.82L19 5.1c-2.8-.2-7-.2-7-.2s-4.2 0-7 .2l-.13.02c-.43.04-1.19.11-1.87.83-.6.6-.8 1.98-.8 1.98S2 9.55 2 11.18v1.52c0 1.62.2 3.24.2 3.24s.2 1.37.8 1.98c.63.66 1.42.76 1.93.82l.27.04c1.6.15 6.8.2 6.8.2s4.2-.01 7-.21l.13-.02c.43-.04 1.19-.11 1.88-.83.6-.6.79-1.98.79-1.98Zm-6.2-4.2-5.6 2.9V8.8l5.6 2.92Z" clip-rule="evenodd"/></svg>
